<?xml version="1.0" encoding="UTF-8" standalone="no"?><!DOCTYPE svg PUBLIC "-//W3C//DTD SVG 1.1//EN" "http://www.w3.org/Graphics/SVG/1.1/DTD/svg11.dtd"><svg width="100%" height="100%" viewBox="0 0 2250 2250" version="1.1" xmlns="http://www.w3.org/2000/svg" xmlns:xlink="http://www.w3.org/1999/xlink" xml:space="preserve" xmlns:serif="http://www.serif.com/" style="fill-rule:evenodd;clip-rule:evenodd;stroke-linejoin:round;stroke-miterlimit:2;"><rect id="Artboard5" x="0" y="0" width="2250" height="2250" style="fill:none;"/><g id="Artboard51" serif:id="Artboard5"><g><path d="M1126.037,56.277c3.082,-0.343 6.193,-0.343 9.276,0c56.731,6.774 619.036,79.987 861.761,347.163c2.187,2.422 3.47,5.524 3.632,8.783c3.491,88.855 36.166,1341.821 -870.031,1781.759c-906.197,-439.938 -873.522,-1692.903 -870.036,-1781.759c0.162,-3.26 1.445,-6.365 3.633,-8.787c242.73,-267.171 805.035,-340.385 861.766,-347.158Zm474.536,1019.203c-47.067,54.002 -25.047,122.251 14.467,156.69c30.513,26.595 68.718,35.944 103.797,29.822l-6.585,-47.844c-19.962,3.846 -42.756,2.521 -64.269,-16.229c-32.708,-28.508 -29.083,-65.907 -8.993,-88.957c20.281,-23.269 56.834,-31.969 89.543,-3.461c16.903,14.732 26.266,39.889 25.238,61.011l48.295,-0.012c2.095,-35.643 -13.342,-71.115 -44.074,-97.901c-39.513,-34.439 -110.35,-47.122 -157.417,6.88Zm-539.983,-27.28l69.988,-218.024l-51.659,6.948l-50.912,156.694l-90.501,-137.676l-51.659,6.948l125.392,191.747l49.35,-6.637Zm70.614,-707.955c0,-88.165 -75.822,-131.542 -140.359,-131.542c-64.89,0 -140.712,43.377 -140.712,131.542c0,88.165 75.822,131.542 140.712,131.542c64.537,0 140.359,-43.377 140.359,-131.542Zm-60.658,0c0,50.43 -43.025,74.764 -79.701,74.764c-37.029,0 -80.054,-24.334 -80.054,-74.764c0,-50.43 43.025,-75.117 80.054,-75.117c36.677,0 79.701,24.686 79.701,75.117Zm355.906,717.122l17.412,-36.54l101.995,48.604l17.538,-36.802l-101.995,-48.604l17.412,-36.54l119.608,56.997l17.663,-37.065l-164.034,-78.167l-87.688,184.012l165.874,79.044l17.663,-37.065l-121.448,-57.874Zm-986.553,79.696l133.126,154.36l88.426,-76.262c52.102,-45.704 45.252,-106.705 12.16,-145.075c-33.091,-38.37 -92.424,-54.108 -145.287,-9.286l-88.426,76.262Zm63.892,-1.268l50.057,-43.171c27.564,-23.773 61.205,-12.41 81.174,10.744c19.779,22.934 26.076,57.879 -1.488,81.651l-50.057,43.171l-79.686,-92.396Zm626.883,-547.578c0,0 -557.341,-215.767 -676.365,-233.171c-3.562,-0.397 -7.161,0.256 -10.357,1.877c-17.846,9.269 -78.026,42.719 -98.883,82.334c-0.241,0.474 -0.256,1.032 -0.041,1.519c0.215,0.487 0.636,0.852 1.149,0.994c38.92,10.819 610.32,169.808 674.86,196.858c0,0 -396.119,115.748 -618.607,247.747c-1.869,1.113 -3.379,2.741 -4.348,4.689c-6.948,14.808 -34.76,82.236 -0.029,148.289c0.361,0.681 1.018,1.156 1.778,1.285c0.76,0.129 1.537,-0.102 2.102,-0.626c20.824,-17.812 184.291,-148.443 728.742,-360.454c542.154,211.116 706.532,341.539 728.48,360.212c0.627,0.579 1.487,0.834 2.329,0.69c0.841,-0.144 1.568,-0.67 1.967,-1.425c31.544,-60.313 11.039,-121.708 2.043,-143.087c-2.251,-5.04 -6.097,-9.2 -10.945,-11.838c-377.82,-206.023 -614.235,-245.482 -614.235,-245.482c64.547,-27.052 639.103,-187.016 678.129,-197.875c0.511,-0.142 0.932,-0.506 1.145,-0.992c0.214,-0.486 0.199,-1.041 -0.042,-1.514c-20.852,-39.617 -81.032,-73.067 -98.879,-82.336c-3.196,-1.621 -6.796,-2.272 -10.357,-1.876c-119.116,17.43 -679.635,234.183 -679.635,234.183Zm279.836,-341.779c-31.034,-22.218 -82.523,-36.324 -129.779,-36.324c-57.131,0 -107.914,21.16 -107.914,75.469c0,97.687 173.156,66.653 173.156,111.441c0,15.517 -20.454,22.57 -46.551,22.57c-37.382,0 -87.107,-13.401 -110.383,-34.913l-29.271,49.373c29.976,23.276 83.581,37.735 133.658,37.735c61.363,0 117.789,-21.865 117.789,-76.175c0,-98.392 -173.862,-65.948 -173.862,-108.972c0,-16.928 19.749,-24.334 45.846,-24.334c33.15,0 75.822,12.343 98.392,32.092l28.918,-47.962Zm-632.376,839.905l-16.628,-36.903l103.01,-46.415l-16.748,-37.169l-103.01,46.415l-16.628,-36.903l120.798,-54.43l-16.867,-37.434l-165.666,74.647l83.738,185.843l167.524,-75.484l-16.867,-37.434l-122.656,55.267Zm445.708,351.527c0,0 67.942,44.01 124.678,165.388c0,0 -69.158,-68.236 -174.435,-88.019l-6.922,550.036l20.124,17.489c0,0 102.226,-35.784 225.306,-183.428c0,0 18.958,-37.425 16.771,-91.924c0,0 -106.747,102.085 -167.12,132.182l-33.686,-353.857c0,0 86.13,38.129 200.97,148.704c0,0 9.57,-55.605 -30.761,-138.219c-40.331,-82.614 -99.802,-189.376 -99.802,-189.376c0,0 68.357,31.774 108.004,95.323c39.647,63.549 82.029,127.098 82.029,127.098c0,0 34.862,-27.402 -48.534,-228.14c0,0 74.597,43.236 160.547,204.293l-0,-92.647c0,0 -77.035,-185.979 -385.261,-320.372c0,0 8.089,25.359 34.467,45.616c26.377,20.257 119.681,85.623 130.619,141.546c0,0 -82.576,-74.733 -147.105,-84.393c0,0 -63.648,-143.366 -100.181,-170.311c-36.533,26.945 -100.181,170.311 -100.181,170.311c-64.529,9.659 -147.105,84.393 -147.105,84.393c10.937,-55.923 104.241,-121.288 130.619,-141.546c26.377,-20.257 34.467,-45.616 34.467,-45.616c-308.226,134.393 -385.261,320.372 -385.261,320.372l0,92.756c85.95,-161.057 160.547,-204.403 160.547,-204.403c-83.396,200.738 -48.534,228.14 -48.534,228.14c0,0 42.382,-63.549 82.029,-127.098c39.647,-63.549 108.004,-95.323 108.004,-95.323c0,0 -59.471,106.762 -99.802,189.376c-40.331,82.614 -30.761,138.219 -30.761,138.219c114.84,-110.575 200.97,-148.704 200.97,-148.704l-33.686,353.857c-60.373,-30.097 -167.12,-132.182 -167.12,-132.182c-2.187,54.5 16.771,91.924 16.771,91.924c123.08,147.644 225.306,183.428 225.306,183.428l20.124,-17.489l-6.922,-550.036c-105.277,19.783 -174.435,88.019 -174.435,88.019c56.737,-121.378 124.678,-165.388 124.678,-165.388c45.359,48.415 135.224,48.415 180.583,0Zm-86.506,-107.654c11.106,1.77 42.821,9.722 42.821,42.802c0,29.545 -25.299,40.91 -38.618,44.847c-5.22,1.502 -10.758,1.501 -15.978,-0.001c-13.319,-3.936 -38.618,-15.301 -38.618,-44.846c0,-33.08 31.716,-41.032 42.821,-42.803c2.512,-0.351 5.06,-0.351 7.572,0.001Zm-3.786,-113.844l23.621,55.415c0,0 -15.748,-2.64 -23.621,-2.64c-7.874,0 -23.621,2.64 -23.621,2.64l23.621,-55.415Zm250.105,-324.855c-22.313,-22.257 -62.377,-40.642 -100.881,-46.967c-46.55,-7.647 -90.76,2.797 -98.029,47.048c-13.075,79.595 132.165,77.484 126.171,113.977c-2.077,12.643 -19.687,15.652 -40.95,12.159c-30.459,-5.003 -69.181,-22.578 -85.266,-43.221l-30.458,36.311c21.309,22.977 63.05,41.933 103.853,48.635c49.998,8.213 98.9,-2.05 106.169,-46.301c13.169,-80.169 -132.834,-77.004 -127.076,-112.06c2.266,-13.793 19.348,-17.184 40.612,-13.691c27.01,4.437 60.127,20.205 75.874,39.318l29.982,-35.208Z" style="fill:#e6edf3;"/></g></g></svg>